<?xml version="1.0" encoding="UTF-8" standalone="no"?>
<svg xmlns:rdf="http://www.w3.org/1999/02/22-rdf-syntax-ns#" xmlns="http://www.w3.org/2000/svg" enable-background="new 0 0 180.852 180.851" xml:space="preserve" height="182.85" viewBox="0 0 182.85099 182.851" width="182.85" version="1.1" y="0px" x="0px" xmlns:cc="http://creativecommons.org/ns#" xmlns:xlink="http://www.w3.org/1999/xlink" xmlns:dc="http://purl.org/dc/elements/1.1/"><defs><clipPath id="SVGID_7_"><use xlink:href="#SVGID_6_" height="100%" width="100%" y="0" x="0" overflow="visible"/></clipPath><rect id="SVGID_6_" y="0" width="180.85" x="0" height="180.85"/><rect id="SVGID_1_" y="0" width="180.85" x="0" height="180.85"/><polygon id="SVGID_3_" points="99.354 159.26 134.98 151.3 136.87 135 42.887 135 46.676 148.65"/><polygon id="SVGID_8_" points="118.08 119.4 90.24 110.94 62.321 119.65 90.164 128.12"/><polygon id="SVGID_11_" points="72.83 141.71 72.299 116.26 70.851 116.72 69.869 141.71"/><path id="SVGID_14_" d="m78.708 120.46c0.486 0 1.729 4.569-0.804 8.09l11.723 3.505 11.718-3.502c-2.226-2.947-0.685-7.736-0.685-8.093 0-0.354-2.993-2.993-10.727-2.993-7.737 0-11.225 2.993-11.225 2.993"/><rect id="SVGID_17_" y="0" width="180.85" x="0" height="180.85"/></defs><g style="" transform="translate(.99737 1.0026)"><g style=""><clipPath id="SVGID_2_"><use xlink:href="#SVGID_1_" height="100%" width="100%" y="0" x="0" overflow="visible"/></clipPath><path d="m25.26 148.17h124.72l-2.026-0.041 12.109-0.615c0.545-0.668 1.084-1.344 1.61-2.025l-46.946 0.921 53.29-10.272c0.375-0.635 0.743-1.276 1.098-1.918l-54.989 8.834 60.528-20.737c0.211-0.552 0.416-1.112 0.614-1.671l-62.206 19.169 66.012-33.509c0.082-0.436 0.15-0.879 0.219-1.322l-67.74 31.76 68.9-48.086c-0.007-0.313-0.013-0.621-0.02-0.935l-70.794 46.194 68.556-63.727c-0.041-0.184-0.088-0.361-0.129-0.545l-70.719 61.748 64.525-79.43c-0.034-0.075-0.068-0.143-0.103-0.219l-67.05 77.47 56.47-93.657-59.36 91.857 42.88-100.6-46.002 99.22 28.462-105.59-31.744 104.67 13.494-108.53-16.87 108.06-1.747-109.35-1.664 109.37-16.945-108.04 13.568 108.52-31.815-104.63 28.541 105.59-46.067-99.189 42.955 100.58-59.421-91.807 56.537 93.627-67.015-77.33c-0.034 0.068-0.068 0.144-0.102 0.218l64.518 79.312-70.665-61.609c-0.041 0.176-0.081 0.361-0.122 0.545l68.508 63.604-70.698-46.065c-0.007 0.313-0.014 0.627-0.014 0.94l68.823 47.965-67.622-31.66c0.075 0.443 0.143 0.887 0.225 1.33l65.91 33.39-62.063-19.07c0.198 0.56 0.41 1.119 0.621 1.679l60.398 20.642-54.825-8.766c0.362 0.648 0.73 1.289 1.112 1.924l53.133 10.205-46.775-0.887c0.532 0.689 1.078 1.363 1.63 2.033l7.531 0.382-3.24 0.062" clip-path="url(#SVGID_2_)" fill="#efaf13"/><polygon points="135.65 42.798 89.846 131.08 89.137 131.37 45.288 42.798 45.792 42.157" fill="#231f20" clip-path="url(#SVGID_2_)"/><path fill="#00794c" d="m64.127 95.957-0.85547 0.13086-1.1953 1.1484 0.53125-1.0332-0.94922 0.19336-0.86328 1.8887 0.39648-1.7871-1.3223 0.37109-1.082 2.6699 0.4043-2.3477-2.0332 1.7852 0.10938 2.3594-0.46875-1.8945-0.79492 1.5742 0.35156 1.7422-0.625-1.3144-0.40039 0.9668-0.0078-0.0137-0.05078 0.15235-0.16406 0.39453 0.01367 0.0508-0.06836 0.20703-0.04687-0.01-0.07031-1.25-1.0762-1.2188-0.16406 1.4453-0.23242-1.7598-1.2637-1.2324 0.16992 1.9414-0.66211-2.2637-2.5039-1.0273 1.1465 2.0918-1.8906-2.1777-1.3691 0.07617 0.95312 1.5645-1.4297-1.5098-0.96094 0.12695 0.83789 0.80664-1.502-0.69922-0.85156 0.1543 0.4082 0.39453 1.8613 0.5918-1.4043-0.14648 0.6543 0.64062 2.1738-0.06445-1.7812 0.44727 0.70117 0.68359 3.3164-0.28516-2.9648 0.59375 0.83594 0.71289 4.3066-0.33007-3.8086 0.57812 1.668 0.8711 3.082-0.28907-2.5391 0.54102 1.0684 0.47266-0.36328-0.11133-1.7617 0.6875 1.5117 0.75976-2.0156-0.44922-1.8535 0.88672 2.1914 0.59375-2.7422-0.18554-2.127 2.3223 2.7441-0.41406-3.1367 1.1973-0.4668 1.5274 2.0898-0.41602-2.2188 0.95703-0.24609 1.1035 1.2129-0.59375-1.3652 1.3594-0.17578 0.99219 0.59961-0.2832 1.3906-1.8008-0.7207 1.4785 0.96289-0.46093 0.79883-2.4004-0.22461 2.127 1.0293-0.49414 1.0176-3.7402-0.53906 3.4824 1.1133-0.63282 1.3691-4.8379-0.89648 4.3965 1.6191-1.4766 0.92188-3.4863-0.32812 2.3008-0.5332 1.3965 2.7285-1.7715 0.002 0.0176-2.9141 2.2168-0.13672 0.97656 2.3457-1.3672-2.4004 1.7852-0.0625 0.87696 1.4648-0.76172-1.498 1.25-0.05859 0.82226 0.85742-0.93554-0.90046 1.5061-0.03711 0.50976 0.66406-0.4043 0.5918-1.3633-0.08398 1.0371 0.7207-0.48633 0.06445-1.8613 0.28711 1.6152 0.9668-0.76562-0.02539-2.5898 0.47461 2.0898 0.0957-0.19141v16.645c-0.074 2.312-1.3457 3.6837-1.3457 5.5137 0 2.271 0.87231 1.2598 1.9453 1.2598s1.9434 1.0122 1.9434-1.2598c0-1.691-1.0959-2.516-1.1699-5.377v-16.713l0.88867 0.70312 0.28906-1.6172 0.06055 1.8652 0.72266 0.48633-0.08398-1.0371 0.5918 1.3613 0.66406 0.40625-0.03711-0.51172-0.90039-1.5059 0.85938 0.93555-0.05859-0.82032-1.5-1.252 1.4648 0.76367-0.06445-0.87695-2.3965-1.7852 2.3125 1.3477 1.4922 1.3594-0.99023-4.8457 1.5098 5.3359 1.2285 0.69141-0.59375-3.8359 1.1211 4.1211 1.1348 0.54297-0.25-2.3457 0.88281 2.6484 1.0625 0.50782-0.79883-1.6309 1.5371 1.9844 0.6582 0.32227-0.19336-1.0977-1.5059-1.5 1.3379 0.6543-0.26953-1.2148-2.4473-1.0547 2.3027 0.45703-0.51367-1.6856-3.457-1.3184 3.0273 0.45703-2.3477-2.5605-3.0215 0.20312 2.416-0.65234-2.043-0.97852-2.2227 0.5 1.666-0.83984-0.60938-0.23633 1.5547-1.4375-2.5762 0.31055 3.0078-0.72852 1.2988-1.3613-3.793 0.68946 4.1816-1.0879 0.55859-0.94727-2.9961 0.40234 3.2285-0.80468 0.44141-0.875-1.832 0.1543 2.0781-0.64453 0.41211-0.81836-1.2832 0.5957 1.5703-1.1641 0.25781-0.50781zm71.752 0-0.85352 0.13086-1.1953 1.1484 0.53125-1.0332-0.95117 0.19336-0.86133 1.8887 0.39648-1.7871-1.3223 0.37109-1.082 2.6699 0.40429-2.3477-2.0332 1.7852 0.10937 2.3594-0.46875-1.8945-0.79492 1.5742 0.35157 1.7422-0.625-1.3144-0.40235 0.9668-0.008-0.0137-0.0508 0.15235-0.16211 0.39453 0.0137 0.0508-0.0703 0.20703-0.0469-0.01-0.0684-1.25-1.0762-1.2188-0.16601 1.4453-0.23047-1.7598-1.2656-1.2324 0.16992 1.9414-0.66015-2.2637-2.5059-1.0273 1.1465 2.0918-1.8887-2.1777-1.3711 0.07617 0.95508 1.5645-1.4316-1.5098-0.96093 0.12695 0.83789 0.80664-1.5-0.69922-0.85352 0.1543 0.40821 0.39453 1.8633 0.5918-1.4062-0.14648 0.65625 0.64062 2.1738-0.06445-1.7812 0.44727 0.70118 0.68359 3.3144-0.28516-2.9648 0.59375 0.83789 0.71289 4.3047-0.33007-3.8086 0.57812 1.6699 0.8711 3.0801-0.28907-2.5371 0.54102 1.0664 0.47266-0.36328-0.11133-1.7617 0.6875 1.5137 0.75976-2.0156-0.44922-1.8555 0.88672 2.1934 0.59375-2.7441-0.18554-2.127 2.3223 2.7441-0.41406-3.1348 1.1973-0.4668 1.5274 2.0898-0.41602-2.2207 0.95703-0.24609 1.1035 1.2129-0.59375-1.3633 1.3594-0.17579 0.99219 0.59766-0.2832 1.3926-1.8008-0.72266 1.4785 0.96289-0.46093 0.80078-2.4004-0.22656 2.127 1.0293-0.49414 1.0176-3.7402-0.53907 3.4824 1.1152-0.63282 1.3691-4.8379-0.89844 4.3965 1.6211-1.4766 0.91993-3.4863-0.32617 2.3008-0.53321 1.3965 2.7285-1.7715v0.0176l-2.9141 2.2168-0.13671 0.97656 2.3457-1.3672-2.3984 1.7852-0.0625 0.87696 1.4648-0.76172-1.5 1.25-0.0586 0.82226 0.85742-0.93554-0.89843 1.5059-0.0371 0.50976 0.66406-0.4043 0.5918-1.3633-0.0859 1.0371 0.72266-0.48633 0.0625-1.8613 0.28906 1.6152 0.96679-0.76562-0.0273-2.5898 0.47656 2.0898 0.0957-0.19141v16.645c-0.075 2.312-1.3457 3.6837-1.3457 5.5137 0 2.271 0.87132 1.2598 1.9453 1.2598 1.073 0 1.9434 1.0122 1.9434-1.2598 0-1.691-1.0979-2.516-1.1719-5.377v-16.713l0.88867 0.70312 0.28906-1.6172 0.0645 1.8652 0.7207 0.48633-0.0859-1.0371 0.5918 1.3613 0.66406 0.40625-0.0352-0.51172-0.90039-1.5059 0.85742 0.93555-0.0586-0.82032-1.498-1.252 1.4629 0.76367-0.0645-0.87695-2.3965-1.7852 2.3125 1.3477 1.4922 1.3594-0.98828-4.8457 1.5078 5.3359 1.2305 0.69141-0.59571-3.8359 1.123 4.1211 1.1328 0.54297-0.24804-2.3457 0.88281 2.6484 1.0606 0.50782-0.79883-1.6309 1.5391 1.9844 0.6582 0.32227-0.19336-1.0977-1.5059-1.5 1.3379 0.6543-0.27149-1.2148-2.4473-1.0547 2.3047 0.45703-0.51562-1.6856-3.457-1.3184 3.0273 0.45703-2.3457-2.5605-3.0234 0.20312 2.416-0.65234-2.043-0.97852-2.2227 0.5 1.668-0.83984-0.61133-0.23633 1.5547-1.4375-2.5723 0.31055 3.0059-0.72852 1.2969-1.3613-3.791 0.68946 4.1797-1.0879 0.56055-0.94727-2.998 0.40234 3.2285-0.80468 0.44335-0.875-1.832 0.1543 2.0762-0.64453 0.41406-0.81836-1.2852 0.5957 1.5723-1.1641 0.25586-0.50781zm-77.836 10.131 0.10742 0.41016-0.07227-0.15625-0.03516-0.25391zm71.754 0 0.10742 0.41016-0.0742-0.15625-0.0332-0.25391zm-75.186 0.29492v0.043l-0.26758 0.19531 0.01953-0.0996 0.24805-0.13867zm71.752 0v0.043l-0.26562 0.19531 0.0195-0.0996 0.24609-0.13867zm-68.242 0.25 0.07813 0.043 0.10742 0.40625-0.13477-0.0977-0.05078-0.35157zm71.752 0 0.0781 0.043 0.10742 0.40625-0.13476-0.0977-0.0508-0.35157zm-71.514 1.6875 0.33008 0.21289 0.0918 0.35157-0.38281-0.29102-0.03906-0.27344zm71.754 0 0.32813 0.21289 0.0937 0.35157-0.38282-0.29102-0.0391-0.27344z"/></g><g style=""><clipPath id="SVGID_4_"><use xlink:href="#SVGID_3_" height="100%" width="100%" y="0" x="0" overflow="visible"/></clipPath><linearGradient id="SVGID_5_" y2="426.05" gradientUnits="userSpaceOnUse" y1="426.05" gradientTransform="matrix(0 22.233 22.233 0 -9382.5 2140.2)" x2="-89.182" x1="-90.181"><stop stop-color="#009266" offset="0"/><stop stop-color="#231F20" offset="1"/></linearGradient><rect clip-path="url(#SVGID_4_)" height="24.254" width="93.986" y="135" x="42.887" fill="url(#SVGID_5_)"/></g><path d="m90.425 0.381c-49.729 0-90.044 40.313-90.044 90.043s40.315 90.045 90.044 90.045c49.732 0 90.045-40.314 90.045-90.045s-40.313-90.043-90.045-90.043m0 147.34c-31.645 0-57.301-25.655-57.301-57.301 0-31.647 25.656-57.301 57.301-57.301 31.647 0 57.303 25.653 57.303 57.301 0 31.645-25.656 57.301-57.303 57.301" clip-path="url(#SVGID_7_)" fill="#004785"/><path fill="#231f20" d="m90.425 0.381v-0.381c-49.94 0-90.425 40.483-90.426 90.425 0.001 49.94 40.486 90.426 90.426 90.426 49.943 0 90.426-40.485 90.426-90.426 0-49.942-40.48-90.425-90.425-90.425v0.381 0.381c24.761 0 47.176 10.036 63.403 26.261 16.226 16.228 26.26 38.64 26.261 63.401-0.001 24.761-10.035 47.175-26.261 63.401-16.227 16.226-38.642 26.261-63.403 26.263-24.76 0.01-47.174-10.03-63.401-26.26-16.226-16.22-26.261-38.63-26.262-63.395 0.001-24.762 10.036-47.174 26.262-63.401 16.227-16.226 38.641-26.262 63.401-26.262v-0.381zm0 147.34v-0.383c-15.718 0-29.946-6.369-40.247-16.67s-16.672-24.529-16.672-40.248 6.371-29.947 16.672-40.248 24.529-16.672 40.247-16.672c15.72 0 29.947 6.371 40.249 16.672s16.672 24.529 16.672 40.248-6.37 29.947-16.672 40.248-24.529 16.67-40.249 16.67v0.383 0.381c31.858 0 57.684-25.825 57.684-57.682 0-31.858-25.826-57.683-57.684-57.683-31.856 0-57.682 25.824-57.682 57.683 0 31.856 25.826 57.682 57.682 57.682v-0.381z" clip-path="url(#SVGID_7_)"/><polygon clip-path="url(#SVGID_7_)" points="46.045 42.293 136.4 42.293 89.853 130.74" fill="#00794c"/><polygon points="45.779 42.129 45.895 42.36 46.045 42.293 46.045 42.45 136.14 42.45 89.86 130.39 46.188 42.218 46.045 42.293 46.045 42.45 46.045 42.293 45.895 42.36 89.853 131.1 136.68 42.129" fill="#231f20" clip-path="url(#SVGID_7_)"/><polygon points="63.311 52.941 119.14 52.941 90.378 107.59" fill="#fff" clip-path="url(#SVGID_7_)"/><polygon points="63.011 52.755 63.144 53.024 63.311 52.941 63.311 53.128 118.83 53.128 90.382 107.18 63.478 52.858 63.311 52.941 63.311 53.128 63.311 52.941 63.144 53.024 90.372 108 119.45 52.755" fill="#231f20" clip-path="url(#SVGID_7_)"/><path d="m80.193 44.912c-1.637 0-2.8379 1.2777-2.8379 3.2207 0 1.855 1.1259 3.1094 2.7559 3.1094h0.0078c1.554 0 2.8379-1.1326 2.8379-3.2266 0-1.822-1.0857-3.1035-2.7637-3.1035zm29.305 0.04102c-2.053 0-3.3203 1.3302-3.3203 3.1582 0 0.955 0.32738 1.7722 0.85938 2.2852 0.6 0.573 1.3642 0.80469 2.2852 0.80469 0.832 0 1.5425-0.19798 1.8965-0.33398v-2.9453h-2.0195v0.64062h1.2344v1.8203c-0.184 0.097-0.53864 0.16406-1.0566 0.16406-1.433 0-2.3613-0.91375-2.3613-2.4688 0-1.535 0.9759-2.4629 2.4629-2.4629 0.621 0 1.0304 0.10781 1.3574 0.25781l0.19726-0.64062c-0.266-0.129-0.82515-0.2793-1.5352-0.2793zm-7.332 0.01563c-0.628 0-1.2004 0.05491-1.6914 0.12891v6.0215c0.409 0.054 0.87231 0.07617 1.4453 0.07617 1.194 0 2.1357-0.30691 2.7227-0.87891 0.559-0.567 0.8789-1.3849 0.8789-2.3809s-0.32104-1.7129-0.87304-2.2109c-0.539-0.498-1.3434-0.75586-2.4824-0.75586zm-18.697 0.04492 1.5547 6.127h0.82617l0.87305-3.1934c0.232-0.791 0.3747-1.377 0.4707-1.998h0.01953c0.082 0.621 0.21134 1.2227 0.40234 2.0137l0.77148 3.1777h0.82617l1.7383-6.127h-0.81055l-0.80469 3.0898c-0.191 0.763-0.37019 1.4472-0.49219 2.1152h-0.02148c-0.089-0.641-0.25169-1.3578-0.42969-2.0938l-0.74219-3.1113h-0.82617l-0.81836 3.0898c-0.212 0.792-0.40305 1.5159-0.49805 2.1289h-0.02148c-0.109-0.594-0.27203-1.3431-0.45703-2.1211l-0.72266-3.0977h-0.83789zm-16.666 0.002v6.125h0.79297v-2.332l0.5918-0.67578 2.0117 3.0078h0.93555l-2.3945-3.5254 2.2168-2.5996h-0.97461l-1.877 2.2988c-0.157 0.198-0.32038 0.4153-0.48438 0.6543h-0.02539v-2.9531h-0.79297zm4.9316 0v6.125h0.74414v-2.6191c0-1.016-0.0067-1.7524-0.05469-2.5234l0.02734-0.01367c0.3 0.668 0.71062 1.3639 1.1406 2.0469l1.9434 3.1094h0.79688v-6.125h-0.74219v2.5723c0 0.947 0.01989 1.6918 0.08789 2.5098l-0.02734 0.0059c-0.28-0.634-0.63998-1.2682-1.084-1.9922l-1.959-3.0957h-0.87305zm19.973 0v6.125h3.4199v-0.66211h-2.6191v-5.4629h-0.80078zm4.291 0v6.125h3.459v-0.66211h-2.6523v-2.209h2.3672v-0.65625h-2.3672v-1.9355h2.5176v-0.66211h-3.3242zm16.414 0v6.125h3.4512v-0.66211h-2.6543v-2.209h2.373v-0.65625h-2.373v-1.9355h2.5195v-0.66211h-3.3164zm-32.26 0.546c1.316 0 1.9502 1.2673 1.9512 2.4883 0 1.393-0.70984 2.5449-1.9648 2.5449h-0.0078c-1.248 0-1.957-1.1874-1.957-2.4824 0-1.323 0.65552-2.5508 1.9785-2.5508zm22.045 0.0332c1.672 0 2.4915 0.90019 2.4785 2.3672 0 1.645-0.90789 2.5996-2.5879 2.5996h-0.0195c-0.307 0-0.59887-0.000016-0.79687-0.04102v-4.8438c0.204-0.048 0.51678-0.08203 0.92578-0.08203zm13.904 19.152-0.47071 0.89453 2.1016 2.3535c0.552 0.607 1.0427 1.1118 1.5137 1.5488l-0.008 0.01367c-0.641-0.15-1.3293-0.29188-2.1133-0.42188l-3.1035-0.47266-0.47852 0.89453 5.2129 3.2539 0.35352-0.66992-2.2441-1.377c-0.791-0.483-1.672-1.002-2.334-1.377l0.008-0.01563c0.723 0.192 1.5217 0.34886 2.4297 0.50586l3.0488 0.48438 0.2793-0.52539-2.1152-2.3535c-0.6-0.669-1.1664-1.2482-1.6914-1.7812l0.008-0.01367c0.669 0.355 1.6099 0.79134 2.3809 1.1523l2.4492 1.1387 0.36718-0.6875-5.5937-2.5449zm-2.2148 6.9043c-0.972 0-1.8279 0.48545-2.3359 1.4395-0.77 1.446-0.21118 3.1036 1.5078 4.0176 0.578 0.305 1.1563 0.45312 1.6953 0.45312 0.989 0 1.8498-0.49673 2.3438-1.4277v-0.0059c0.737-1.372 0.34133-3.0375-1.5137-4.0195-0.575-0.306-1.1553-0.45703-1.6973-0.45703zm-43.695 0.53906-0.60742 0.30078 0.83398 1.6621-4.8789 2.4375 0.35547 0.7168 4.8848-2.4355 0.83203 1.6777 0.59961-0.29883-2.0195-4.0605zm43.563 0.29102c0.491 0 1.0088 0.14962 1.4668 0.39062 1.228 0.655 1.9102 1.8227 1.3242 2.9277l-0.006 0.0059c-0.348 0.654-0.97602 0.94336-1.666 0.94336-0.475 0-0.98131-0.13777-1.4453-0.38477-1.166-0.621-1.9452-1.7725-1.3242-2.9395 0.358-0.672 0.98039-0.94336 1.6504-0.94336zm-41.318 4.4238-5.3945 2.6934 0.34766 0.70312 2.3809-1.1816 0.32812 0.66211c0.3 0.655 0.16328 1.0995-0.51172 1.6445-0.607 0.486-1.0238 0.83977-1.1328 1.0098l0.36719 0.73047c0.157-0.212 0.62188-0.60602 1.2969-1.166 0.498-0.421 0.76412-0.86642 0.70312-1.3574l0.02734-0.01367c0.315 0.315 0.72869 0.51953 1.1797 0.51953 0.234 0 0.47866-0.05569 0.72266-0.17969 0.437-0.211 0.72317-0.56427 0.82617-0.94726 0.143-0.498 0.04006-1.0633-0.33594-1.8203-0.245-0.484-0.55169-0.97688-0.80469-1.2969zm38.627 0.26953c-0.295 0-0.57665 0.05134-0.84765 0.15234-0.695 0.231-1.3039 0.83198-1.8359 1.834-0.293 0.553-0.51764 1.0868-0.68164 1.5508l5.3203 2.8379c0.239-0.341 0.47114-0.73705 0.74414-1.248 0.559-1.051 0.72905-2.0275 0.49805-2.8125-0.232-0.764-0.80555-1.4235-1.6856-1.8945-0.542-0.285-1.0417-0.41992-1.5117-0.41992zm-38.77 0.68359c0.096 0.103 0.24602 0.32211 0.41602 0.66211 0.375 0.751 0.32133 1.4184-0.38867 1.7734-0.17 0.083-0.34177 0.125-0.50977 0.125-0.45 0-0.86848-0.2948-1.1465-0.8418l-0.36328-0.72852 1.9922-0.99023zm38.648 0.12695c0.399 0 0.82181 0.12238 1.2578 0.35938 1.467 0.778 1.8753 2.0314 1.0703 3.5254-0.143 0.272-0.2782 0.52645-0.4082 0.68945l-4.28-2.279c0.061-0.205 0.17214-0.49642 0.36914-0.85742 0.519-0.975 1.2083-1.4375 1.9883-1.4375zm-36.246 3.2305-3.2344 1.6094c-1.705 0.852-1.9174 2.0127-1.3574 3.1387 0.396 0.792 1.0302 1.2988 1.9082 1.2988 0.438 0 0.93509-0.1273 1.4961-0.4043l3.1992-1.5957-0.35547-0.7168-3.2539 1.623c-0.447 0.224-0.83778 0.32812-1.1758 0.32812-0.567 0-0.97847-0.29383-1.2305-0.79883-0.362-0.73-0.11553-1.5356 1.1055-2.1426l3.252-1.623-0.35352-0.7168zm32.482 0.72266c-0.259 0.164-0.60739 0.50378-0.90039 1.0508-0.559 1.05-0.30694 2.0803 0.53906 2.5293 0.23 0.123 0.46041 0.18164 0.6914 0.18164 0.52501 0 1.0574-0.29411 1.6074-0.78711 0.445-0.394 0.79395-0.58203 1.127-0.58203 0.162 0 0.32138 0.04581 0.48438 0.13281 0.552 0.293 0.70231 0.90605 0.32031 1.623-0.252 0.478-0.64958 0.84578-1.0176 1.0508l0.49219 0.49805c0.348-0.184 0.81098-0.67031 1.084-1.1953 0.682-1.276 0.27341-2.2718-0.55859-2.7148-0.269-0.145-0.5253-0.21289-0.7793-0.21289-0.494 0-0.98202 0.25928-1.541 0.73828-0.48401 0.417-0.83674 0.63867-1.1777 0.63867-0.145 0-0.28945-0.03909-0.43945-0.12109-0.368-0.197-0.66063-0.70912-0.26563-1.4531 0.259-0.483 0.60783-0.76391 0.79883-0.87891l-0.46484-0.49805zm-2.3027 3.9121-0.375 0.70117 5.4102 2.8789 0.375-0.70117-5.4102-2.8789zm-27.861 0.0098-0.60742 0.30078 0.83203 1.6699-4.877 2.4375 0.35547 0.71484 4.8828-2.4336 0.83203 1.6719 0.60938-0.30078-2.0273-4.0605zm27.123 1.3594-0.375 0.71484 2.3457 2.1699c0.587 0.526 1.1067 0.99678 1.6387 1.4258l-0.008 0.01367c-0.613-0.216-1.3227-0.41547-2.0527-0.60547l-3.0977-0.80469-0.38867 0.72852 2.3477 2.1758c0.6 0.559 1.1527 1.0645 1.6367 1.4395l-0.008 0.01953c-0.573-0.185-1.3161-0.39675-2.0801-0.59375l-3.0762-0.81641-0.39453 0.73438 6.1387 1.5078 0.38868-0.73047-2.4082-2.2715c-0.594-0.567-1.043-0.97461-1.541-1.3496l0.006-0.02148c0.587 0.219 1.1728 0.38875 1.9648 0.59375l3.1719 0.8125 0.38867-0.72852-4.5977-4.4141zm-24.797 3.3066-5.4844 2.7363 0.35547 0.71484 2.5703-1.2832 1.3242 2.6484-2.5723 1.2832 0.36133 0.7168 5.4863-2.7363-0.36328-0.7168-2.291 1.1465-1.3242-2.6523 2.293-1.1406-0.35547-0.7168z"/><path fill="#fff" d="m89.748 7.9766-0.52344 0.048828c-0.019 0.856 0.01619 0.97695-0.25781 1.002-0.224 0.022-0.56973-0.17175-1.6777-0.46875-1.339-0.352-2.7015-0.4245-3.8965-0.3125-4.956 0.465-8.3358 4.3245-7.8398 9.6055 0.517 5.502 4.5129 8.4696 9.1719 8.0566 3.536-0.333 5.5305-2.1036 6.4355-2.8926l-0.1543-3.8027-0.57422 0.05273c-0.064 1.991 0.09819 3.1815-0.88281 4.2285-0.732 0.774-2.2116 1.3395-3.6816 1.4785-3.212 0.301-7.5038-1.5318-8.0898-7.7578-0.505-5.378 2.6747-8.1645 6.0117-8.4785 2.64-0.248 4.525 1.1074 5.166 1.7754 0.33 1.1 0.59202 2.5571 0.66602 3.0781l0.549-0.051-0.422-5.5624zm9.252 6.1234c-2.9298-0.07532-5.5831 1.8302-5.9844 5.3008-0.427 3.703 2.0471 6.2551 5.2031 6.6191 3.156 0.365 6.1482-1.5568 6.5742-5.2598 0.428-3.701-2.0481-6.2522-5.2031-6.6172-0.197-0.023-0.395-0.038-0.59-0.043zm0.04687 0.51367c0.15743-0.0017 0.31819 0.0061 0.48438 0.02539 2.659 0.306 3.6034 3.0336 3.2734 5.8906-0.33 2.858-1.8713 5.2982-4.5293 4.9922-2.659-0.307-3.6005-3.0346-3.2715-5.8926 0.30844-2.6775 1.6815-4.9907 4.043-5.0156zm13.273 1.9355c-0.121-0.034-0.44525 0.36577-0.78125 0.63477-0.268 0.21-0.56958 0.35876-0.89258 0.75976l-6.1152 7.4121c-0.437 0.527-0.69344 0.60955-1.3984 0.43555l-0.11523 0.4082c0.83 0.186 1.1679 0.28095 1.5039 0.37695 0.578 0.164 1.6216 0.51369 1.7656 0.55469l0.11719-0.4082c-1.382-0.445-1.4644-0.52128-1.4024-0.73828 0.047-0.168 0.25696-0.44775 0.37696-0.59375l2.0391-2.5918 4.0644 1.1582 0.3086 3.0254c0.041 0.403 0.0568 0.71872 0.008 0.88672-0.061 0.216-0.23331 0.27236-1.5703-0.05664l-0.11719 0.4082c0.752 0.189 1.5544 0.3907 2.2754 0.5957 0.72199 0.206 1.6945 0.53634 2.1035 0.65234l0.0273-0.0957c0.61976 0.5502 1.6163 1.3303 2.7461 1.832 2.241 0.995 4.4816 0.2635 5.1816-1.3125 0.589-1.328 0.18782-2.7091-1.6172-4.4941-1.898-1.83-2.4989-2.4511-1.9609-3.6621 0.41501-0.938 1.5147-1.6829 3.1367-0.96289 1.03 0.457 1.7251 1.2315 1.9941 1.9805 0.153 0.397 0.0761 0.6915-0.42188 1.8125l0.41211 0.18164 1.3398-2.7695-0.38867-0.17188c-0.282 0.449-0.30058 0.49412-0.39257 0.45312-0.068-0.03-0.0956-0.09452-0.3086-0.35352-0.676-0.82-1.3241-1.2724-2.0781-1.6074-2.744-1.218-4.4886 0.25125-5.0566 1.5312-0.609 1.372-0.13191 2.514 1.4961 4.084 2.18 2.118 2.4348 3.0253 2.0078 3.9863-0.426 0.959-1.7003 1.4871-3.2773 0.78711-1.12-0.496-1.9497-1.4666-2.2617-1.9336l0.44141-2.1055-0.38868-0.17188-0.94531 2.4277c-0.43889-0.18559-0.50948-0.39652-0.59375-1.1777l-1.08-10.451c-0.059-0.615-0.0856-0.69956-0.18164-0.72656zm-45.451 0.26758-0.39648 0.15234c0.08 0.209 0.14231 0.37316 0.07031 0.53516-0.073 0.16-1.0071 0.51614-5.8691 2.3691-0.725 0.275-1.8896 0.66414-2.0996 0.74414l0.15234 0.39844c0.976-0.317 1.174-0.28638 1.248-0.23438 0.097 0.043 0.19233 0.22231 0.61133 1.3203l2.5625 6.7324c0.419 1.1 0.46783 1.2946 0.42383 1.3926-0.02 0.088-0.14789 0.24225-1.0879 0.65625l0.15039 0.39648c0.21-0.081 1.3385-0.56384 2.0625-0.83984 0.725-0.277 1.8877-0.66467 2.4727-0.88867l-0.151-0.396c-1.35 0.461-1.549 0.42895-1.623 0.37695-0.097-0.043-0.19138-0.22031-0.60938-1.3203l-1.2109-3.1777c2.454-0.936 3.646-1.3906 3.918-1.3066 0.185 0.064 0.24041 0.20336 0.69141 1.3184l0.39648-0.15234-1.291-3.3887-0.39844 0.14844c0.107 0.281 0.37878 1.0603 0.30078 1.2773-0.078 0.218-0.63992 0.43276-3.7949 1.6348l-1.3535-3.5547c-0.24-0.631-0.27858-0.80306-0.26758-0.91406 0.02-0.088 0.24405-0.20156 1.623-0.72656 0.677-0.259 2.6029-0.96494 3.0859-0.96094 0.46 0.012 0.79538 0.81991 1.1094 1.5039l0.39648-0.15039-1.1211-2.9453zm43.994 1.7344 0.0508 0.09375 0.49024 4.7676-3.6328-1.0352 2.9766-3.7812 0.11523-0.04492zm16.436 3.6953-1.8516 2.5625 0.36328 0.22266c1.221-1.452 1.3197-1.5636 3.5527-0.18164 0.852 0.527 0.95775 0.59084 0.96875 0.71484 0.024 0.104-0.0149 0.16662-0.46289 0.89062l-4.0391 6.5312c-0.61799 0.999-0.74561 1.1576-0.84961 1.1816-0.082 0.037-0.28199 0.03094-1.5-0.66406l-0.22266 0.35938c0.51 0.316 1.5773 0.91817 2.2363 1.3262 0.659 0.408 1.6765 1.0971 2.1875 1.4121l0.22266-0.36328c-1.164-0.779-1.2607-0.95392-1.2637-1.0449-0.024-0.102 0.0587-0.28711 0.67774-1.2871l4.041-6.5273c0.422-0.681 0.5-0.80931 0.625-0.82031 0.12399-0.012 0.33751 0.12075 1.1035 0.59375 2.211 1.37 2.1194 1.5199 1.2734 3.1719l0.38281 0.23633 1.6152-2.707-0.38282-0.23633c-0.132 0.213-0.20965 0.34005-0.34765 0.37305-0.173 0.04-0.35658-0.04272-4.1426-2.3867-3.808-2.356-3.9423-2.4699-3.9883-2.5859-0.067-0.13 0.0251-0.27788 0.16211-0.54688l-0.36133-0.22461zm-74.863 1.6367c-0.305 0.173-1.2817 0.78098-2.2617 1.334-0.675 0.382-1.7669 0.94078-1.9629 1.0508l0.20703 0.37109c0.918-0.461 1.1192-0.45992 1.1992-0.41992 0.103 0.029 0.22378 0.1928 0.80078 1.2168l3.5391 6.2715c0.577 1.023 0.654 1.2105 0.625 1.3125-0.006 0.09-0.11052 0.26355-0.97852 0.81055l0.20898 0.37109c0.197-0.111 1.2388-0.75441 2.6758-1.5664 1.09-0.614 2.1789-1.2307 3.1719-1.7617 0.992-0.531 1.8982-1.0115 2.5332-1.3125l-1.1504-2.8555-0.41406 0.23438 0.54688 2.1914c-0.972 0.72-2.2464 1.4668-3.3574 2.0918-1.329 0.75-1.493 0.81559-1.582 0.80859-0.069-0.02-0.1402-0.09502-0.5332-0.79102l-3.7598-6.666c-0.577-1.024-0.654-1.2105-0.625-1.3125 0.006-0.09 0.10917-0.26381 1.3262-1.0078l-0.20898-0.37109zm-5.9004 3.4062c-0.16 0.16-0.88403 0.77767-1.332 1.1387-0.487 0.392-1.2041 0.93647-1.4531 1.1055l0.26758 0.33203c1.079-0.774 1.2895-0.90944 1.3945-0.89844 0.07 0.006 0.19955 0.12647 0.68555 0.73047 1.303 1.616 2.6285 3.1812 3.8535 4.7012 1.051 1.304 1.2085 2.4955-0.89453 4.1895-2.434 1.962-3.92 1.3931-4.877 0.20508l-3.3926-4.2051c-0.722-0.896-0.8275-1.067-0.8125-1.209 0.011-0.104 0.09709-0.23616 1.1211-1.1602l-0.27-0.331c-0.592 0.541-1.2534 1.0735-1.8574 1.5605-0.564 0.456-1.3777 1.0814-1.7637 1.3594l0.26758 0.33008c0.697-0.528 0.83836-0.51495 0.94336-0.50195 0.125-0.005 0.30181 0.17378 1.0078 1.0508l3.6562 4.5371c0.769 0.955 1.2944 1.3666 2.5684 1.4316 0.973 0.051 2.1384-0.37378 3.4434-1.4258 1.383-1.115 2.1935-2.3801 2.1855-3.7871-0.023-0.946-0.38517-1.7126-1.2012-2.7246l-3.4727-4.4316c-0.53-0.698-0.59694-0.73775-0.58594-0.84375 0.008-0.071 0.0942-0.20522 0.7832-0.82422l-0.26758-0.33008zm99.555 1.6992-0.34961 0.32422c0.592 0.747 0.78007 0.94873 0.78907 1.1777 0.012 0.16-0.20821 0.36486-1.0332 1.1309l-7.2559 6.7422c-1.393 1.294-1.9084 2.3567-1.6894 4.0977 0.227 1.532 1.0101 2.8516 2.2871 4.2266 1.414 1.522 3.0446 2.3588 4.4746 2.4648 1.941 0.141 3.0661-0.63061 4.9531-2.3496l6.1348-5.5977c0.825-0.766 1.026-0.91627 1.168-0.94727 0.124-0.013 0.38392 0.15658 1.1699 0.89258l0.34765-0.32227c-0.204-0.221-1.074-1.0838-1.584-1.6348-0.54499-0.586-1.326-1.4994-1.582-1.7754l-0.34764 0.32422c0.863 1.077 1.2557 1.4625 1.2637 1.7285-0.006 0.176-0.22805 0.41586-0.99805 1.1309-2.436 2.264-4.8021 4.4958-6.7441 6.3008-2.29 2.128-4.3247 2.106-6.5547-0.29297-1.005-1.081-1.8098-2.313-2.0078-3.666-0.19801-1.353 0.17219-2.2769 1.4922-3.5039l6.834-6.3535c0.843-0.782 1.0455-0.96884 1.1875-0.96484 0.21101 0.008 0.55391 0.33983 1.6289 1.4238l0.34765-0.32422c-0.699-0.717-1.4161-1.4501-2.0801-2.1641-0.614-0.66-1.3936-1.5384-1.8516-2.0684zm-116.06 4.907-0.33 0.409c0.598 0.613 0.71156 0.66964 0.60156 0.80664-0.142 0.174-0.52177 0.28609-1.5098 0.87109-1.222 0.716-2.1289 1.5593-2.7109 2.2793-3.601 4.454-2.5262 9.7284 1.3438 12.857 4.901 3.963 9.5379 1.8897 12.338-1.5723 1.604-1.983 2.1442-3.926 2.5332-5.959l-2.8984-2.3438c-0.447-0.362-0.52897-0.45861-0.54297-0.59961-0.023-0.212 0.08386-0.38361 0.63086-1.0996l-0.37109-0.30078c-0.373 0.502-0.77716 1.0434-1.9102 2.4434-0.928 1.148-1.2462 1.5032-1.9102 2.2852l0.37109 0.29688c1.323-1.437 1.5972-1.6995 1.7852-1.7715 0.239-0.096 0.41836 0.08086 0.94336 0.50586l1.9844 1.6055c0.622 0.502 0.74998 0.70334 0.70898 1.1523-0.063 0.754-0.56116 1.9256-1.4102 2.9766-1.919 2.373-6.1127 4.4178-11.053 0.42383-3.89-3.145-4.4614-7.691-2.0234-10.707 1.651-2.041 3.7654-2.2307 4.6914-2.2207 1.017 0.532 2.242 1.3618 2.666 1.6738l0.3457-0.42773-4.2734-3.584zm49.779 10.639c-1.636 0-2.8359 1.2738-2.8359 3.2188 0 1.854 1.1279 3.1074 2.7559 3.1074h0.0078c1.554 0 2.8359-1.1256 2.8359-3.2266 0-1.818-1.0817-3.0996-2.7637-3.0996zm29.307 0.03516c-2.055 0-3.3184 1.3361-3.3184 3.1641 0 0.953 0.32652 1.7722 0.85352 2.2812 0.6 0.574 1.364 0.80859 2.291 0.80859 0.828 0 1.5376-0.19894 1.8926-0.33594v-2.9434h-2.0195v0.63477h1.2383v1.8281c-0.183 0.091-0.53764 0.16406-1.0566 0.16406-1.435 0-2.3633-0.91961-2.3633-2.4746 0-1.536 0.97384-2.4629 2.4648-2.4629 0.617 0 1.0265 0.10967 1.3535 0.26367l0.19922-0.64648c-0.264-0.127-0.82616-0.28125-1.5352-0.28125zm-7.3301 0.01953c-0.628 0-1.2004 0.05395-1.6914 0.12695v6.0273c0.409 0.054 0.87231 0.07227 1.4453 0.07227 1.191 0 2.1378-0.30886 2.7188-0.88086 0.564-0.565 0.88086-1.3828 0.88086-2.3828 0-0.991-0.31805-1.709-0.87305-2.209-0.536-0.5-1.3445-0.75391-2.4805-0.75391zm-35.361 0.04492v6.127h0.79102v-2.3359l0.58984-0.67188 2.0098 3.0078h0.93555l-2.3906-3.5254 2.2168-2.6016h-0.98047l-1.873 2.3008c-0.155 0.2-0.31842 0.4183-0.48242 0.6543h-0.02539v-2.9551h-0.79102zm4.9277 0v6.127h0.74609v-2.6172c0-1.017-0.0097-1.7553-0.05469-2.5273l0.02734-0.0098c0.3 0.663 0.70872 1.3629 1.1367 2.0449l1.9453 3.1094h0.79883v-6.127h-0.74414v2.5723c-0.000001 0.945 0.01684 1.6918 0.08984 2.5098l-0.02734 0.0098c-0.282-0.637-0.64484-1.2742-1.0898-1.9922l-1.9551-3.0996h-0.87305zm11.734 0 1.5547 6.127h0.82812l0.87109-3.1914c0.227-0.791 0.37366-1.382 0.47266-2h0.01758c0.082 0.618 0.20939 1.2168 0.40039 2.0078l0.77344 3.1836h0.82813l1.7344-6.127h-0.80859l-0.80859 3.0918c-0.191 0.764-0.36323 1.4442-0.49023 2.1172h-0.01953c-0.091-0.646-0.25373-1.3656-0.42773-2.1016l-0.74414-3.1074h-0.82812l-0.81641 3.0918c-0.21 0.791-0.401 1.518-0.5 2.127h-0.01953c-0.109-0.591-0.27308-1.3471-0.45508-2.1191l-0.72656-3.0996h-0.83594zm8.2402 0v6.127h3.418v-0.66406h-2.6172v-5.4629h-0.80078zm4.293 0.002v6.127h3.4531v-0.66406h-2.6523v-2.209h2.3711v-0.65625h-2.3711v-1.9355h2.5176v-0.66211h-3.3184zm16.406 0v6.127h3.4551v-0.66406h-2.6524v-2.209h2.3711v-0.65625h-2.3711v-1.9355h2.5176v-0.66211h-3.3203zm-32.252 0.54492c1.318 0 1.9551 1.2722 1.9551 2.4902 0 1.391-0.70889 2.5449-1.9629 2.5449h-0.0098c-1.245 0-1.9551-1.1905-1.9551-2.4805 0-1.328 0.65466-2.5547 1.9727-2.5547zm22.047 0.03516c1.673 0 2.4914 0.89833 2.4824 2.3613 0 1.657-0.91837 2.6116-2.6094 2.6016-0.31 0-0.59983 0.000843-0.79883-0.03516v-4.8457c0.209-0.046 0.51678-0.08203 0.92578-0.08203zm52.656 1.8711-0.36524 0.21289c0.481 1.022 0.536 1.1647 0.5 1.3027-0.024 0.157-0.23987 0.28511-0.67187 0.53711-1.079 0.632-4.7176 2.5837-6.8066 3.7207-1.006 0.559-1.1574 0.64605-1.3164 0.62305-0.158-0.023-0.27622-0.12684-0.82422-0.96484l-0.36718 0.21484c0.152 0.258 0.63745 0.98786 0.93945 1.5059 0.316 0.542 0.7903 1.4525 0.9043 1.6465l0.36718-0.21289c-0.555-1.095-0.61217-1.2946-0.57617-1.4316 0.036-0.136 0.20817-0.23736 1.2012-0.81836l6.8594-3.9258h0.14648c0.039 0.065 0.0196 0.13508-0.0684 0.33008l-4.2559 11.646c-0.257 0.701-0.27421 0.76844-0.19921 0.89844 0.102 0.173 0.23507 0.15222 0.58007-0.05078l7.9395-4.4102c0.768-0.422 1.1467-0.6138 1.3047-0.5918 0.124 0.014 0.26646 0.10631 0.81446 0.94531l0.36523-0.21484c-0.173-0.246-0.63578-0.99033-0.92578-1.4863-0.316-0.54-0.8243-1.4585-0.9043-1.6445l-0.36718 0.21484c0.558 1.15 0.64565 1.303 0.59765 1.418-0.049 0.115-0.20911 0.23891-0.66211 0.50391l-5.8496 3.4219c-0.28 0.163-0.36825 0.21539-0.40625 0.15039-0.038-0.064-0.0162-0.07769 0.01-0.17969l3.8848-10.502c-0.56599-0.769-0.88628-1.2174-1.1133-1.6074l-0.73437-1.252zm6.9688 12.607-0.39258 0.16406c0.385 1.058 0.35859 1.258 0.30859 1.332-0.041 0.098-0.21478 0.19844-1.3008 0.64844l-6.6543 2.7598c-1.086 0.45-1.2819 0.50389-1.3789 0.46289-0.089-0.017-0.24761-0.14111-0.72461-1.1621l-0.39258 0.16406c0.124 0.299 0.63955 1.4119 0.93555 2.1289 0.297 0.717 0.7207 1.867 0.8457 2.168l0.39258-0.16406c-0.385-1.059-0.35959-1.258-0.30859-1.334 0.041-0.097 0.21478-0.19548 1.3008-0.64648l6.6543-2.7598c1.086-0.45 1.2809-0.50389 1.3789-0.46289 0.089 0.017 0.24761 0.14111 0.72461 1.1621l0.39258-0.16406c-0.124-0.299-0.63855-1.4139-0.93555-2.1289-0.297-0.717-0.7207-1.869-0.8457-2.168zm-129.79 0.002c-0.379 0.817-0.45512 0.86575-1.4531 0.84375l-10.504-0.28125c-0.618-0.021-0.70609-0.0061-0.74609 0.08594-0.049 0.115 0.30825 0.48747 0.53125 0.85547 0.173 0.293 0.27972 0.61242 0.63672 0.98242l6.5586 7.0234c0.465 0.502 0.514 0.76736 0.25 1.4434l0.39062 0.16992c0.29-0.8 0.42936-1.1214 0.56836-1.4434 0.238-0.551 0.71834-1.5426 0.77734-1.6816l-0.38867-0.16797c-0.621 1.314-0.70806 1.3839-0.91406 1.2949-0.161-0.07-0.41002-0.31117-0.54102-0.45117l-2.3047-2.3555 1.6738-3.8809 3.041 0.08594c0.404 0.01 0.71986 0.03547 0.88086 0.10547 0.206 0.089 0.23828 0.26778-0.26172 1.5508l0.39062 0.16992c0.284-0.723 0.58972-1.4926 0.88672-2.1816 0.298-0.689 0.74997-1.61 0.91797-2l-0.39062-0.16797zm-10.805 2.3125 4.791 0.13281-1.4961 3.4668-3.3652-3.4395-0.02734-0.12109 0.09766-0.03906zm142.65 2.1523-0.40821 0.11524c0.266 0.913 0.20688 0.98256-0.57812 1.6016l-8.2305 6.5547c-0.383 0.293-0.58497 0.40283-0.54297 0.54883 0.042 0.144 0.46699 0.1767 0.95898 0.3457 0.406 0.142 0.76521 0.30017 1.0332 0.32617l9.5859 1.1777c0.67 0.067 0.87751 0.24069 1.1035 0.92969l0.4082-0.11914c-0.277-0.778-0.38151-1.1386-0.47851-1.4746-0.168-0.577-0.44394-1.6166-0.46094-1.7676l-0.41015 0.11914c0.31499 1.263 0.37828 1.4777 0.11328 1.5547-0.168 0.049-0.34983 0.05067-0.67383 0.01367l-8.6094-0.86133-0.0918-0.05273 0.043-0.11719 6.7266-5.3613c0.213-0.166 0.44975-0.33986 0.59375-0.38086 0.264-0.077 0.3422 0.10933 0.7832 1.3613l0.41016-0.11914c-0.257-0.707-0.48808-1.5001-0.70508-2.2441-0.201-0.696-0.46231-1.6874-0.57031-2.1504zm-47.771 0.21094-0.47461 0.89062 2.1035 2.3555c0.555 0.604 1.0457 1.1119 1.5137 1.5469l-0.008 0.01758c-0.638-0.155-1.3263-0.29578-2.1113-0.42578l-3.1074-0.4707-0.47461 0.89258 5.207 3.2559 0.35547-0.66602-2.2422-1.3789c-0.793-0.484-1.6709-1.002-2.3359-1.377l0.008-0.01758c0.724 0.19 1.5246 0.34895 2.4316 0.50195l3.0449 0.48828 0.2832-0.5293-2.1172-2.3516c-0.601-0.67-1.1664-1.2504-1.6894-1.7754l0.008-0.01758c0.666 0.354 1.6078 0.79525 2.3828 1.1562l2.4434 1.1367 0.36719-0.69141-5.5879-2.541zm-95.142 3.189c-0.92654 0.0191-1.7566 0.26078-2.4609 0.67578-1.554 0.916-2.3858 2.3301-2.9688 4.5801-0.175 0.678-0.42525 1.854-0.65625 2.75-0.194 0.75-0.55042 1.9275-0.60742 2.1445l0.41211 0.10352c0.305-0.979 0.44625-1.1233 0.53125-1.1543 0.092-0.052 0.29169-0.02547 1.4297 0.26953l6.9746 1.7988c1.138 0.295 1.3249 0.36894 1.3789 0.46094 0.06 0.067 0.11425 0.26353-0.09375 1.2695l0.41016 0.10352c0.057-0.217 0.31577-1.417 0.50977-2.168 0.219-0.848 0.54286-1.8997 0.75586-2.7227 0.631-2.446 0.41878-3.8203-0.44922-5.3613-0.808-1.371-2.1673-2.2142-3.4023-2.5332-0.61762-0.15975-1.2077-0.22826-1.7637-0.2168zm-0.1582 1.959c0.46536 0.0097 0.94167 0.07352 1.4199 0.19727 1.962 0.506 3.3964 1.7565 3.8574 3.2715 0.272 0.844 0.23527 1.6872-0.17773 3.2852-0.206 0.8-0.33492 0.9993-0.41992 1.0293-0.116 0.046-0.26769 0.03247-1.4297-0.26953l-6.9746-1.7988c-1.163-0.301-1.3029-0.36294-1.3809-0.46094-0.06-0.067-0.07514-0.30256 0.13086-1.1016 0.413-1.599 0.78364-2.3305 1.4316-2.9375 0.861-0.78525 2.1469-1.2438 3.543-1.2148zm93.01 1.752c-0.9415 0.02506-1.766 0.51195-2.2598 1.4395-0.77 1.445-0.21114 3.1016 1.5059 4.0156 1.637 0.871 3.2751 0.46725 4.0391-0.96875l0.004-0.0078c0.731-1.373 0.33837-3.0355-1.5156-4.0215-0.6015-0.32025-1.2085-0.47207-1.7734-0.45703zm-43.621 0.53906-0.60156 0.29883 0.83203 1.668-4.8809 2.4355 0.35742 0.7168 4.8789-2.4375 0.83789 1.6777 0.60156-0.30273-2.0254-4.0566zm43.734 0.29688c0.4404 0.02891 0.89338 0.16831 1.2969 0.38281 1.227 0.654 1.9123 1.8246 1.3223 2.9316l-0.004 0.0059c-0.585 1.1-1.9704 1.1656-3.1094 0.55859-1.172-0.624-1.9481-1.7755-1.3281-2.9395 0.38687-0.7275 1.0883-0.98764 1.8223-0.93945zm53.322 4.0488-0.41992 0.05664c0.085 1.025 0.008 1.2115-0.0586 1.2715-0.064 0.084-0.25882 0.13602-1.4238 0.29102l-7.1426 0.95312c-1.165 0.156-1.3652 0.1568-1.4492 0.0918-0.082-0.039-0.20367-0.19998-0.38867-1.209l-0.42188 0.05664c0.031 0.222 0.24099 1.4304 0.45899 3.0664 0.166 1.24 0.33108 2.4806 0.45508 3.5996 0.126 1.119 0.23401 2.1375 0.29101 2.9375l3.0547-0.17969-0.0625-0.47266-2.2148-0.15625c-0.318-1.244-0.53803-2.7057-0.70703-3.9707-0.202-1.512-0.20115-1.6895-0.16015-1.7695 0.043-0.056 0.13764-0.09522 0.93164-0.19922l4.0644-0.54297c0.322 2.405 0.49066 3.6691 0.34766 3.9141-0.105 0.166-0.25346 0.18514-1.4395 0.36914l0.0566 0.42188 3.5938-0.48047-0.0566-0.41992c-0.298 0.039-1.1185 0.12305-1.3125-0.002-0.193-0.126-0.27236-0.72114-0.69336-3.8691l3.5215-0.4707c0.669-0.089 0.84612-0.08673 0.95312-0.05273 0.08 0.041 0.13704 0.28505 0.33204 1.748 0.096 0.72 0.34446 2.7566 0.23046 3.2266-0.118 0.444-0.9827 0.58442-1.7207 0.73242l0.0566 0.42188 3.125-0.41602-0.0586-0.42188c-0.223 0.029-0.39611 0.05231-0.53711-0.05469-0.14-0.108-0.27199-1.0998-0.95899-6.2578-0.103-0.769-0.21509-1.9889-0.24609-2.2129zm-94.807 0.36524-5.4004 2.6953 0.35156 0.70703 2.375-1.1855 0.33398 0.66602c0.296 0.656 0.16133 1.0987-0.51367 1.6387-0.61 0.489-1.0228 0.84572-1.1328 1.0117l0.36719 0.73242c0.158-0.212 0.62188-0.60502 1.2969-1.166 0.501-0.421 0.76508-0.87042 0.70508-1.3574l0.02344-0.01172c0.48 0.472 1.1922 0.69684 1.9082 0.33984 0.431-0.216 0.72222-0.56612 0.82422-0.95312 0.138-0.494 0.03716-1.0633-0.33984-1.8203-0.24-0.481-0.54783-0.97688-0.79883-1.2969zm38.887 0.28711c-0.393-0.04075-0.76374 0.0073-1.1152 0.13476-0.694 0.238-1.298 0.83294-1.832 1.8359-0.295 0.555-0.51464 1.0867-0.68164 1.5547l5.3203 2.832c0.24-0.334 0.47319-0.73619 0.74219-1.2422 0.56-1.049 0.733-2.0315 0.5-2.8145-0.232-0.761-0.8055-1.4255-1.6875-1.8965-0.4375-0.2325-0.85309-0.36355-1.2461-0.4043zm-39.029 0.66992c0.093 0.105 0.24306 0.32402 0.41406 0.66602 0.373 0.748 0.31933 1.4146-0.38867 1.7676-0.626 0.313-1.2802 0.04116-1.6582-0.71484l-0.36133-0.72461 1.9941-0.99414zm38.518 0.13281c0.43722-0.02849 0.90409 0.09252 1.3867 0.35352 1.461 0.776 1.8713 2.0344 1.0703 3.5234-0.146 0.272-0.2822 0.53045-0.4082 0.68945l-4.2754-2.2773c0.057-0.205 0.16833-0.49547 0.36132-0.85547 0.49125-0.92312 1.1365-1.3861 1.8652-1.4336zm-96.695 2.084c-0.039 0.323-0.13742 1.5454-0.23242 2.3164-0.095 0.769-0.29398 1.9797-0.33398 2.3027l0.42188 0.05078c0.187-1.112 0.30767-1.2735 0.38867-1.3125 0.083-0.065 0.28417-0.06588 1.4512 0.07812l7.1504 0.87891c1.167 0.143 1.3627 0.19139 1.4277 0.27539 0.06199 0.05287 0.1172 0.29744 0.0625 1.1758h-0.19922c-0.03 1.326-0.13064 1.351-0.55664 1.373-2.151 0.117-3.4789 0.41038-4.2109 2.1094-0.404 0.948-0.35469 1.2734-0.42969 1.2734-0.075-0.001 0.000516-0.12534-0.27148-0.90234-0.519-1.527-1.3658-2.3319-2.5918-2.3359-0.725-0.003-1.4769 0.34497-2.0039 0.91797-0.729 0.798-0.95784 1.8478-0.96484 3.5488-0.001 0.349 0.02192 0.97539 0.04492 1.4004 0.023 0.426 0.02053 0.97578 0.01953 1.3008-0.003 0.776-0.05759 1.9996-0.05859 2.2246l0.42383 0.0039c0.054-1.025 0.15547-1.199 0.23047-1.25 0.076-0.074 0.27712-0.1007 1.4531-0.0957l7.2031 0.0293c1.175 0.003 1.3752 0.02952 1.4492 0.10352 0.075 0.052 0.1737 0.22695 0.2207 1.252l0.42578 0.002c0.001-0.225-0.04497-1.4516-0.04297-2.2266 0.003-0.775 0.05855-2.002 0.06055-2.377l-0.42578-0.002c-0.054 1.176-0.15547 1.3504-0.23047 1.4004-0.076 0.075-0.27517 0.1007-1.4512 0.0957l-3.252-0.01172 0.0039-0.875c0.014-3.352 1.3152-3.7982 4.4922-3.7852l0.82422 0.0039c0.0028-0.72303 0.01224-1.3761 0.05859-2.959l0.19726 0.02539c0.039-0.324 0.13938-1.5425 0.23438-2.3125 0.095-0.772 0.29398-1.9807 0.33398-2.3027l-0.42383-0.05469c-0.186 1.111-0.30572 1.2735-0.38672 1.3145-0.083 0.066-0.28612 0.06588-1.4531-0.07812l-7.1484-0.87891c-1.167-0.142-1.3627-0.19434-1.4277-0.27734-0.068-0.058-0.14559-0.24419-0.05859-1.3672l-0.42383-0.05273zm60.574 1.1406-3.2285 1.6113c-1.708 0.854-1.9213 2.0157-1.3613 3.1367 0.593 1.189 1.7193 1.7345 3.4023 0.89453l3.2051-1.5996-0.35742-0.7168-3.2539 1.625c-1.203 0.599-2.0042 0.3402-2.4062-0.4668-0.365-0.733-0.11748-1.5365 1.1035-2.1445l3.2539-1.623-0.35742-0.7168zm32.484 0.72656c-0.261 0.159-0.60744 0.49892-0.89844 1.0449-0.56 1.051-0.30489 2.0832 0.53711 2.5312 0.754 0.402 1.5098 0.10458 2.3008-0.60742 0.662-0.585 1.1124-0.71617 1.6094-0.45117 0.554 0.295 0.70126 0.90905 0.32226 1.623-0.257 0.482-0.64957 0.85164-1.0176 1.0566l0.48828 0.49414c0.347-0.185 0.81089-0.67041 1.0879-1.1914 0.68-1.276 0.27345-2.2748-0.56055-2.7188-0.794-0.422-1.4713-0.19661-2.3203 0.52539-0.686 0.594-1.1092 0.79053-1.6152 0.51953-0.37-0.195-0.66057-0.71122-0.26757-1.4492 0.261-0.489 0.60678-0.76981 0.80078-0.88281l-0.4668-0.49414zm-2.3008 3.9023-0.37695 0.70703 5.4082 2.8789 0.375-0.70508-5.4062-2.8809zm-27.865 0.01758-0.60156 0.30078 0.83203 1.666-4.8809 2.4375 0.35742 0.71484 4.8809-2.4336 0.83594 1.6738 0.60352-0.29883-2.0273-4.0605zm27.127 1.3574-0.37891 0.71289 2.3457 2.168c0.585 0.528 1.1056 1.0007 1.6406 1.4297l-0.01 0.01563c-0.613-0.222-1.3217-0.41538-2.0527-0.60938l-3.0957-0.80469-0.38868 0.73047 2.3438 2.1738c0.59999 0.556 1.1526 1.0684 1.6426 1.4414l-0.008 0.01758c-0.573-0.181-1.316-0.3927-2.084-0.5957l-3.0781-0.81445-0.39258 0.73828 6.1387 1.5078 0.38868-0.73047-2.4062-2.2715c-0.592-0.572-1.0449-0.97647-1.5449-1.3555l0.01-0.01758c0.585 0.218 1.1739 0.3878 1.9609 0.5918l3.1719 0.8125 0.38868-0.72852-4.5918-4.4121zm53.17 1.3262c-0.006 0.225 0.0141 1.4526-0.006 2.2266-0.019 0.775-0.10133 1.999-0.11133 2.375l0.42578 0.0098c0.079-1.174 0.18572-1.3475 0.26172-1.3945 0.077-0.074 0.27713-0.09345 1.4531-0.06445l3.25 0.08398-0.0234 0.875c-0.084 3.35-1.3953 3.7685-4.5703 3.6895l-0.82422-0.02148c-0.02 0.776-0.0339 1.2988-0.13086 3.1738l0.42578 0.01172c0.059-1.325 0.15799-1.3463 0.58399-1.3613 2.154-0.072 3.4859-0.33753 4.2539-2.0195 0.424-0.942 0.38203-1.2676 0.45703-1.2656s-0.002 0.12525 0.25391 0.90625c0.486 1.538 1.315 2.3606 2.541 2.3906 0.724 0.019 1.4834-0.312 2.0234-0.875 0.745-0.781 0.99706-1.8254 1.0391-3.5254 0.009-0.35 0.00033-0.97634-0.0137-1.4023-0.015-0.426-0.001-0.97478 0.006-1.3008 0.02-0.775 0.10142-1.9986 0.10742-2.2246l-0.42578-0.0098c-0.076 1.023-0.17986 1.1951-0.25586 1.2441-0.077 0.072-0.27812 0.0925-1.4531 0.0625l-7.2012-0.18164c-1.176-0.03-1.3743-0.05972-1.4473-0.13672-0.074-0.052-0.17131-0.22886-0.19531-1.2559l-0.42383-0.0098zm-140.95 0.5625c1.301 0.007 2.4494 0.83494 2.4414 2.7109-0.002 0.701-0.08181 1.4276-0.13281 1.8516l-3.8262-0.01563c-0.7-0.004-0.90256-0.0051-0.97656-0.08008-0.075-0.074-0.14753-0.19917-0.14453-1.0762 0.008-2.102 0.86367-3.3966 2.6387-3.3906zm62.975 1.416-5.4824 2.7383 0.35742 0.71484 2.5703-1.2832 1.3223 2.6523-2.5703 1.2832 0.35742 0.7168 5.4844-2.7383-0.35938-0.71484-2.293 1.1445-1.3242-2.6504 2.2949-1.1465-0.35742-0.7168zm83.869 1.2734 3.8242 0.0957c0.701 0.018 0.90261 0.02161 0.97461 0.09961 0.073 0.076 0.14404 0.20312 0.12304 1.0781-0.053 2.101-0.93493 3.3789-2.7109 3.3359-1.299-0.034-2.4298-0.88867-2.3828-2.7637 0.017-0.701 0.11088-1.4217 0.17188-1.8457zm-142.91 6.05c-0.42592-0.01196-0.87045 0.01762-1.3301 0.09375-3.677 0.61-5.4477 3.6922-4.9277 6.8242 0.519 3.135 3.1912 5.4811 6.8672 4.8711 3.677-0.608 5.4467-3.6912 4.9277-6.8262-0.455-2.7414-2.5556-4.8792-5.5371-4.9629zm137.04 1.748c-0.361 0.623-1.0906 2.0712-1.3496 3.5742-0.416 2.416 0.84102 4.4092 2.541 4.7012 1.43 0.246 2.6709-0.48192 3.9609-2.6699 1.307-2.288 1.7643-3.0209 3.0703-2.7969 1.011 0.174 2.0022 1.0547 1.7012 2.8047-0.191 1.11-0.77064 1.9749-1.4316 2.4199-0.346 0.245-0.65138 0.24416-1.8594 0.0352l-0.0762 0.44336 3.0156 0.62109 0.0723-0.41992c-0.505-0.163-0.55411-0.17349-0.53711-0.27149 0.013-0.074 0.0696-0.11476 0.26758-0.38476 0.63-0.856 0.90983-1.5952 1.0488-2.4082 0.509-2.959-1.3427-4.2913-2.7227-4.5293-1.479-0.254-2.4688 0.48912-3.5938 2.4531-1.518 2.631-2.3351 3.1018-3.3711 2.9238-1.035-0.177-1.8594-1.2844-1.5664-2.9844 0.208-1.209 0.94432-2.248 1.3203-2.666l2.1465-0.08789 0.0723-0.41992-2.709-0.33789zm-136.98 0.205c2.4376-0.1246 4.6079 0.78268 4.9902 3.0918 0.438 2.642-1.9237 4.3005-4.7617 4.7715-2.838 0.47-5.6099-0.33752-6.0469-2.9785s1.9237-4.2995 4.7617-4.7695c0.35475-0.05888 0.70841-0.09743 1.0566-0.11523zm134.97 8.1094c-0.088 0.314-0.37684 1.507-0.58984 2.252-0.212 0.745-0.59655 1.9116-0.68555 2.2246l0.41016 0.11524c0.357-1.068 0.50094-1.2093 0.58594-1.2363 0.093-0.052 0.29087-0.0202 1.4219 0.30078l6.9297 1.9746c1.131 0.321 1.3152 0.40114 1.3672 0.49414 0.058 0.067 0.1067 0.26337-0.1543 1.3594l0.4082 0.11719c0.091-0.313 0.37785-1.506 0.58985-2.252s0.59654-1.9097 0.68554-2.2227l-0.41-0.12c-0.357 1.068-0.49994 1.2074-0.58594 1.2344-0.093 0.052-0.29383 0.0212-1.4238-0.29882l-6.9277-1.9746c-1.13-0.322-1.3152-0.40014-1.3672-0.49414-0.059-0.068-0.1057-0.26433 0.1543-1.3613l-0.41016-0.11719zm-128.54 1.0703-3.0156 0.61133 0.15234 0.44922 2.2539-0.13867c0.531 1.088 1.0343 2.4756 1.4473 3.6816 0.495 1.443 0.52886 1.6171 0.50586 1.7031-0.032 0.065-0.118 0.12086-0.875 0.38086l-7.2383 2.4824c-1.112 0.381-1.3112 0.422-1.4062 0.375-0.087-0.022-0.23805-0.15428-0.74805-1.4883l-0.40234 0.14063c0.114 0.331 0.53539 1.4038 0.90039 2.4668 0.251 0.734 0.59983 1.91 0.67383 2.123l0.399-0.14c-0.286-0.986-0.24836-1.1858-0.19336-1.2578 0.047-0.093 0.22784-0.1815 1.3398-0.5625l6.8145-2.3359c1.112-0.381 1.3083-0.42395 1.4043-0.37695 0.087 0.023 0.23914 0.15637 0.61914 1.1094l0.40234-0.13672c-0.073-0.214-0.51674-1.3569-1.0527-2.9199-0.406-1.182-0.8133-2.3665-1.1543-3.4375-0.341-1.073-0.65008-2.0515-0.83008-2.7305zm126.47 5.7383c-0.227 0.557-0.6455 1.7088-0.9375 2.4258-0.294 0.719-0.8042 1.8336-1.0332 2.3906l0.39453 0.16016c0.577-1.277 0.73426-1.4009 0.82226-1.4199 0.099-0.041 0.29386 0.012 1.3809 0.45704l7.1074 2.9082c0.741 0.303 0.8811 0.35947 0.9121 0.48047 0.032 0.122-0.0633 0.35154-0.40429 1.1855-0.985 2.408-1.148 2.3413-2.918 1.7793l-0.16992 0.41602 1.7676 0.6914c-0.25246 0.16953-0.59854 0.25986-1.1699 0.25782l-5.7695 0.0195-2.4668-1.377c-1.021-0.584-1.1829-0.70264-1.2109-0.80664-0.041-0.08-0.0416-0.28243 0.60937-1.5234l-0.37109-0.21094c-0.296 0.521-0.85819 1.6112-1.2422 2.2852-0.385 0.673-1.034 1.7134-1.332 2.2344l0.36719 0.21094c0.737-1.193 0.91195-1.2947 1.002-1.3027 0.102-0.026 0.28855 0.0508 1.3106 0.63282l2.9551 1.6855 2.4941 4.5625c0.541 0.97 0.43631 1.2551 0.0703 1.9961l0.36914 0.21093c0.214-0.426 0.51439-1.002 0.77539-1.459 0.285-0.5 0.60627-1.0655 0.94727-1.5625l-0.36914-0.21094c-0.53 0.878-0.68147 1.1977-0.85547 1.0977-0.13-0.075-0.28607-0.30858-0.78907-1.1426l-1.9726-3.2559c-0.093-0.138-0.11289-0.207-0.0879-0.25 0.024-0.044 0.10204-0.0292 0.24804-0.0332l3.7891-0.0254c1.244-0.011 1.3534-0.004 1.4414 0.0449 0.174 0.099-0.0234 0.44764-0.48437 1.3066l0.36914 0.21094c0.353-0.719 0.78592-1.4803 1.1699-2.1543 0.22899-0.40186 0.48284-0.81243 0.73828-1.2324l0.63477 0.24804 0.16992-0.41796c-0.231-0.093-0.37078-0.15025-0.42578-0.28125-0.0155-0.037-0.0197-0.0861-0.006-0.16993 0.0126-0.02 0.035-0.0593 0.0469-0.0781l-0.0234-0.0137c0.0861-0.35238 0.44162-1.2575 1.6523-4.2168 1.695-4.144 1.7846-4.2963 1.8926-4.3613 0.117-0.086 0.27745-0.0197 0.56445 0.0703l0.16211-0.39648-2.832-1.3984-0.16016 0.39258c1.631 0.965 1.7616 1.0465 0.76758 3.4785-0.379 0.926-0.42683 1.0393-0.54883 1.0703-0.097 0.041-0.16612 0.0134-0.95312-0.3086l-7.1074-2.9082c-1.088-0.445-1.2637-0.54262-1.3047-0.64062-0.05-0.075-0.0758-0.27585 0.4082-1.5898l-0.39453-0.16211zm-127.68 7.9688-4.6016 2.5312 0.22852 0.41602c1.612-0.858 1.7502-0.76208 1.9922-0.58008 0.288 0.212 2.2025 3.6405 2.9375 4.9785l-5.1934 2.8555c-0.986 0.542-1.2498 0.68548-1.3848 0.64648-0.136-0.039-0.43362-0.47433-1.2656-1.9863-1.193-2.171-1.975-3.8521-1.959-4.2891 0.021-0.326 0.085-0.67645 2-1.8144l-0.22852-0.41602-3.6836 2.0254 0.23047 0.41602c0.475-0.175 0.55256-0.13461 0.72656 0.0254 0.247 0.293 2.414 4.1829 3.668 6.4629 0.386 0.701 1.087 2.0271 1.752 3.2891l0.41797-0.22852c-0.499-1.01-0.64594-1.3282-0.58594-1.5332 0.039-0.135 0.37739-0.34975 1.2754-0.84375l11.002-6.0527c0.899-0.495 1.2605-0.664 1.3965-0.625 0.204 0.058 0.39642 0.3524 0.98242 1.3164l0.41602-0.23046c-0.156-0.284-0.94814-1.6197-1.3691-2.3867-0.495-0.899-1.1871-2.2595-1.5371-2.8945l-0.41602 0.22852 0.45117 0.92383c0.376 0.734 0.41867 0.96731 0.38867 1.0703-0.039 0.135-0.37639 0.35075-1.2754 0.84375l-5.306 2.91c-0.627-1.138-1.0732-1.9505-1.7012-3.1465-0.75-1.415-0.99822-2.0214-0.94922-2.1914 0.048-0.225 0.15631-0.3385 1.8203-1.3125l-0.23047-0.41602zm22.607 25.002c-2.097 0-3.7969 1.7009-3.7969 3.7969 0 2.097 1.6999 3.7969 3.7969 3.7969s3.7969-1.6999 3.7969-3.7969c0-2.095-1.6999-3.7959-3.7969-3.7969zm85.34 0c-2.097 0-3.7988 1.7009-3.7988 3.7969 0 2.097 1.7018 3.7969 3.7988 3.7969 2.095 0 3.7969-1.6999 3.7969-3.7969 0-2.095-1.7019-3.7959-3.7969-3.7969zm-22.76 6.6348c-2.071 0.676-2.6748 0.84153-4.6758 1.3945l0.13281 0.48243 1.5645-0.35352c0.238 0.582 0.47692 1.449 1.1699 3.957 0.986 3.568 1.1118 4.2079 1.2188 4.8789l-1.4785 0.5625 0.12696 0.45898c1.957-0.619 2.5513-0.80934 4.6973-1.4023l-0.125-0.45703-1.5156 0.33984-1.4844-5.375c-0.5-1.809-0.74314-3.0664-0.86914-3.5234l1.3711-0.48047-0.13282-0.48242zm-38.58 0.42578-0.125 0.48438 1.5312 0.47265c-0.084 0.623-0.30898 1.4966-0.95898 4.0156-0.924 3.584-1.135 4.2029-1.377 4.8379l-1.5625-0.24805-0.11914 0.45703c2.005 0.44 2.6165 0.57096 4.7715 1.127l0.11914-0.45899-1.4824-0.45898 1.3926-5.4004c0.468-1.817 0.88491-3.0293 1.0039-3.4883l1.4297 0.26758 0.125-0.48633c-2.132-0.445-2.738-0.6021-4.748-1.1211zm25.955 2c-0.19319-0.004-0.39156 0.005-0.59375 0.0254-2.687 0.275-4.5742 2.7054-4.2812 5.5664 0.297 2.911 2.5215 4.5172 4.8105 4.2832 0.996-0.101 2.1475-0.64665 2.8555-1.3476 0.39-0.366 0.50373-0.47838 0.55273-0.48438 0.05-0.003 0.0809 0.0445 0.0899 0.14453 0.104 1.021-0.19327 2.533-0.57227 3.502-0.973 2.539-2.7159 3.925-5.5449 4.791l0.17383 0.46094c7.922-2.193 7.8292-8.7719 7.6172-10.836-0.34032-3.3366-2.2096-6.0511-5.1074-6.1055zm-13.398 0.0918c-2.4725 0.0465-4.5134 2.0045-4.7402 4.6914-0.248 2.916 1.6415 4.9105 3.9355 5.1055 0.996 0.084 2.2267-0.23793 3.0527-0.79493 0.451-0.289 0.58477-0.37804 0.63477-0.37304 0.05 0.004 0.0715 0.0533 0.0625 0.15429-0.086 1.023-0.66089 2.4539-1.2129 3.3359-1.426 2.314-3.3969 3.3516-6.3359 3.6816l0.08398 0.48047c8.191-0.686 9.3191-7.1664 9.4941-9.2344 0.302-3.564-1.2346-6.7562-4.4746-7.0312-0.16825-0.0143-0.33517-0.0187-0.5-0.0156zm13.188 0.37695c2.1193 0.0847 3.3364 2.4614 3.6289 5.332 0.069 0.67199 0.0393 1.1263 0.0293 1.5293-0.52 0.556-1.6357 1.449-2.9297 1.582-2.09 0.213-3.6533-1.538-3.9043-4-0.237-2.315 0.77424-4.2297 2.7402-4.4297 0.14931-0.0153 0.29426-0.0193 0.43555-0.0137zm-12.826 0.0781c2.393 0.203 3.2678 2.9135 3.0078 5.9785-0.056 0.673-0.16991 1.1148-0.25391 1.5098-0.616 0.449-1.8778 1.1217-3.1738 1.0117-2.092-0.178-3.3018-2.1892-3.0938-4.6562 0.197-2.318 1.5447-4.0108 3.5137-3.8438z"/><path fill="#004785" d="m91.195 54.744c2.958 1.578 12.115 16.182 0.26563 25.793-0.78789 0.63888-0.15411 1.5688 1.0488 2.168l-0.42383 0.14062c-17.192-8.9666-7.1007-26.261-3.9316-28.047-0.445-0.031-2.4205 0.2172-4.5625 3.1582 0.248-0.727 0.39333-1.0489 0.48633-2.2539-0.354 0.249-1.4009 0.72245-2.8789 3.8145 0.088-0.691 0.21472-0.88802 0.13672-2.166-0.409 0.43-1.6289 1.873-2.4629 4.377-0.003-0.621 0.05631-1.1772-0.17969-1.8652-0.328 0.376-1.4889 2.3068-1.9219 5.2168 0.015-0.628 0.0026-1.2569-0.15039-1.8789-4.426 7.964 1.4977 24.979 18.221 20.928-0.0067-0.0027-0.0128-0.0051-0.01953-0.0078 1.7551-0.31935 5.927-2.2647 7.0547 0.44531 0 0 1.0836-3.3305-0.68945-3.8105l-0.98047-0.41406c4.607-4.9187 5.4428-12.809 2.7129-17.465-0.138 0.631-0.13347 1.2587-0.10547 1.8887-0.499-2.903-1.706-4.8058-2.041-5.1738-0.219 0.69-0.14872 1.2481-0.13672 1.8691-0.891-2.483-2.1435-3.8994-2.5645-4.3184-0.048 1.279 0.08445 1.4721 0.18945 2.1621-1.551-3.054-2.6117-3.5061-2.9707-3.7461 0.122 1.202 0.27602 1.5212 0.54102 2.2402-2.208-2.888-4.1907-3.0957-4.6367-3.0547z"/><path fill="#fff" d="m93.314 83.179-3.024-0.432 0.396-0.717-3.058-0.795 3.311-1.727s-1.713 0.098 0.36-0.252c3.158-0.531 5.036-0.025 6.336 0.145 0 0 2.519 0.504 1.799 1.472l1.689 0.657c0.598 0.328 0.324 1.14 0.362 1.533l-0.251-0.25c-0.566-0.531-2.448-0.676-8.136 1.016l0.216-0.65z" clip-path="url(#SVGID_7_)"/><path d="m97.595 80.356s1.01-0.093 1.325 0.052c0.403 0.188-0.255 0.71-0.255 0.71l-1.07-0.762z" clip-path="url(#SVGID_7_)" fill="#004785"/><path fill="#fff" d="m97.451 80.308c0.283 0.023 1.53 0.541 1.255 0.95" clip-path="url(#SVGID_7_)"/><g style=""><clipPath id="SVGID_9_"><use xlink:href="#SVGID_8_" height="100%" width="100%" y="0" x="0" overflow="visible"/></clipPath><linearGradient id="SVGID_10_" y2="416.72" gradientUnits="userSpaceOnUse" y1="416.72" gradientTransform="matrix(1.0572 -15.331 -15.323 -.92 6597.6 -1267.7)" x2="-115.27" x1="-116.27"><stop stop-color="#fff" offset="0"/><stop stop-color="#fff" offset=".0169"/><stop stop-color="#231F20" offset="1"/></linearGradient><polygon points="119.26 111.01 117.85 131.45 61.141 128.05 62.551 107.6" fill="url(#SVGID_10_)" clip-path="url(#SVGID_9_)"/></g><g style=""><clipPath id="SVGID_12_"><use xlink:href="#SVGID_11_" height="100%" width="100%" y="0" x="0" overflow="visible"/></clipPath><linearGradient id="SVGID_13_" y2="532.76" gradientUnits="userSpaceOnUse" y1="532.76" gradientTransform="matrix(-2.18 0 0 2.18 -221.97 -1032.4)" x2="-134.38" x1="-135.38"><stop stop-color="#fff" offset="0"/><stop stop-color="#231F20" offset="1"/></linearGradient><rect clip-path="url(#SVGID_12_)" height="25.447" width="2.961" y="116.26" x="69.869" fill="url(#SVGID_13_)"/></g><g style=""><clipPath id="SVGID_15_"><use xlink:href="#SVGID_14_" height="100%" width="100%" y="0" x="0" overflow="visible"/></clipPath><linearGradient id="SVGID_16_" y2="415.36" gradientUnits="userSpaceOnUse" y1="415.36" gradientTransform="matrix(32.567 .7655 .7655 -32.567 2980.1 13727)" x2="-97.502" x1="-98.502"><stop stop-color="#404041" offset="0"/><stop stop-color="#fff" offset=".3315"/><stop stop-color="#404041" offset="1"/></linearGradient><polygon points="101.33 132.6 77.561 132.05 77.917 116.92 101.69 117.47" fill="url(#SVGID_16_)" clip-path="url(#SVGID_15_)"/></g><g style=""><clipPath id="SVGID_18_"><use xlink:href="#SVGID_17_" height="100%" width="100%" y="0" x="0" overflow="visible"/></clipPath><path d="m89.627 132.05 0.057 0.191 11.994-3.584-0.173-0.23c-0.897-1.183-1.166-2.697-1.165-4.095 0-0.967 0.128-1.873 0.257-2.563 0.064-0.345 0.129-0.636 0.177-0.854 0.024-0.108 0.045-0.201 0.06-0.274 0.014-0.076 0.025-0.123 0.026-0.185-0.003-0.091-0.033-0.14-0.065-0.196-0.123-0.195-0.394-0.449-0.861-0.761-1.4-0.925-4.531-2.235-10.001-2.235-7.79 0-11.33 3.018-11.355 3.041l-0.41 0.352h0.539v-0.094l-0.046 0.082 0.046 0.012v-0.094l-0.046 0.082 0.001-0.002-0.002 0.002h0.001l0.001-0.002-0.002 0.002c0.017 0.01 0.092 0.107 0.157 0.263 0.208 0.468 0.429 1.44 0.428 2.608 0 1.496-0.355 3.32-1.503 4.914l-0.164 0.228 12.048 3.602 0.058-0.017-0.057-0.193 0.057-0.191-11.723-3.504-0.057 0.19 0.161 0.117c1.211-1.683 1.579-3.59 1.579-5.147 0-0.895-0.121-1.675-0.278-2.24-0.079-0.283-0.166-0.512-0.258-0.684-0.047-0.085-0.094-0.156-0.151-0.215-0.057-0.057-0.129-0.117-0.25-0.12v0.199l0.131 0.151 0.035-0.028c0.385-0.308 3.856-2.916 11.06-2.917 3.844 0 6.5 0.656 8.188 1.348 0.844 0.348 1.447 0.703 1.832 0.989 0.193 0.142 0.332 0.269 0.416 0.36l0.086 0.109 0.011 0.02 0.082-0.032h-0.087l0.005 0.032 0.082-0.032h-0.087 0.029l-0.029-0.002v0.002h0.029l-0.029-0.002c0 0.022-0.034 0.188-0.083 0.405-0.15 0.672-0.437 1.996-0.438 3.474 0.001 1.444 0.275 3.048 1.246 4.336l0.159-0.12-0.057-0.191-11.719 3.502 0.058 0.191 0.057-0.191-0.057 0.191z" clip-path="url(#SVGID_18_)" fill="#231f20"/></g></g></svg>